PathFileType	4	(X/Y/Z)	D:\Long Term Storage\D'Arcy Smith\Coord19.trc
DataRate	CameraRate	NumFrames	NumMarkers	Units	OrigDataRate	OrigDataStartFrame	OrigNumFrames
120.00	120.00	      88	4	mm	120.00	2452	      4903
Frame#	Time	M1			M2			M3			M4			
		X1	Y1	Z1	X2	Y2	Z2	X3	Y3	Z3	X4	Y4	Z4	

2452	20.425	648.27032	337.54315	426.50278	949.43622	390.87772	545.73077							
2453	20.433	644.99707	343.28296	446.94501	947.81030	386.13898	539.43097							
2454	20.442	642.04004	349.95319	465.07870	946.02997	380.46378	531.49103							
2455	20.450	638.63354	357.32474	485.00375	944.39215	374.55756	522.36786							
2456	20.458	635.39600	365.13861	500.80020	942.67853	368.45303	512.23724							
2457	20.467	632.19446	373.53741	515.45001	940.94641	361.73413	502.04965							
2458	20.475	628.95361	381.78360	528.51111	939.03363	355.21790	489.89108							
2459	20.483	625.89526	390.14474	540.15295	937.25244	347.94699	475.99875							
2460	20.492	622.93793	398.18921	549.84387	935.54584	341.16724	462.42450							
2461	20.500	619.98132	405.71332	558.32733	933.69763	334.70367	448.02271							
2462	20.508	617.33386	412.78247	565.31885	932.09326	328.57425	432.44904							
2463	20.517	615.02197	418.73755	570.74158	930.41809	322.82996	416.62268							
2464	20.525	612.74609	423.81827	574.81708	929.08588	317.45499	398.87454							
2465	20.533	610.85815	427.58551	577.50885	927.45270	312.84592	381.74164							
2466	20.542	609.26788	430.13144	578.68231	926.20441	309.16760	364.11536							
2467	20.550	608.00128	431.18802	578.76733	925.03217	306.10416	346.27789							
2468	20.558	607.06238	431.09552	577.44373	923.87347	303.87851	328.27042							
2469	20.567	606.23254	429.72537	574.89532	922.85376	302.55069	309.91949							
2470	20.575	605.76935	427.19891	571.09888	921.77991	301.71851	291.07748							
2471	20.583	605.25568	423.60764	566.04407	920.86346	302.24219	273.06958							
2472	20.592	605.35272	419.21692	559.75903	920.24646	303.58011	255.71687							
2473	20.600	605.36591	413.99747	552.18311	919.50568	305.58948	237.82661							
2474	20.608	605.56488	408.30789	543.59644	918.91876	308.19467	220.48869							
2475	20.617	605.78156	402.22675	533.70508	918.55066	311.84280	203.70134							
2476	20.625	606.19269	395.88287	522.56244	917.97888	315.98462	187.46533							
2477	20.633	606.77167	389.48358	510.04538	917.57147	320.75394	171.66730							
2478	20.642	607.42401	383.25003	496.48279	917.24194	326.06628	156.64494							
2479	20.650	608.10583	377.17001	481.26984	916.86096	331.64648	142.19412							
2480	20.658	608.98608	371.31610	464.98792	916.48993	337.48062	128.42542							
2481	20.667	609.77124	365.89316	446.24829	916.02014	343.45282	115.60336							
2482	20.675	610.48157	360.92651	427.30331	915.90063	351.29996	99.68914							
2483	20.683	611.55396	356.69339	407.50861	915.47821	357.45480	88.19849							
2484	20.692	612.84943	353.68323	386.27701	914.80719	363.69553	76.85126							
2485	20.700	613.69556	351.23431	364.71234	914.07990	369.14499	67.38049							
2486	20.708	614.93988	350.13605	342.12973	913.60754	374.97253	58.08587							
2487	20.717	615.51929	349.82800	319.06586	913.08545	379.28250	50.81119							
2488	20.725	617.17285	351.63092	295.55356	912.39923	384.66837	43.03547							
2489	20.733	617.71204	353.90198	272.17825	911.75507	389.69635	36.11065							
2490	20.742	619.47705	358.48724	248.52940	910.98627	394.33945	29.63065							
2491	20.750	619.92273	363.54272	225.59784	910.25043	398.61887	24.08601							
2492	20.758	621.55957	370.56836	202.90002	909.27313	402.33600	19.23174							
2493	20.767	621.85498	377.97562	181.14159	908.34509	405.63620	15.12406							
2494	20.775	623.70227	387.97510	159.74117	907.46594	408.48703	11.74427							
2495	20.783	624.05933	397.19458	140.22356	906.42664	410.53323	9.19941							
2496	20.792	624.79962	407.38345	122.17995	905.38873	412.34955	7.22950							
2497	20.800	625.99689	418.03949	107.87405	904.43207	413.23749	7.64995							
2498	20.808	626.73474	429.00827	91.33375	903.29120	413.82745	7.06884							
2499	20.817	626.90491	438.88394	78.83473	902.15186	413.83188	7.29821							
2500	20.825	627.55310	448.20618	68.55478	900.95276	413.35818	8.13908							
2501	20.833	628.38196	457.70508	58.79102	899.73608	412.17740	9.81589							
2502	20.842	629.15466	464.79025	52.64971	898.66779	410.49667	12.01109							
2503	20.850	630.78143	471.84393	47.46580	897.35754	408.38876	14.81750							
2504	20.858	631.34241	476.77737	43.84849	896.11017	405.56696	18.28441							
2505	20.867	632.54865	480.76096	41.74743	894.93396	402.24994	22.53381							
2506	20.875	634.10425	483.36224	40.93807	893.80786	398.89590	27.39231							
2507	20.883	635.79150	484.66611	41.33909	892.75464	394.72711	33.53584							
2508	20.892	637.46582	484.69485	42.81816	891.64386	390.22260	39.58095							
2509	20.900	639.26398	483.51553	45.26415	890.48645	385.22278	45.81077							
2510	20.908	641.02478	481.24872	48.55069	889.54504	380.13300	52.41375							
2511	20.917	643.15918	478.03281	52.42675	888.75299	374.67340	60.03744							
2512	20.925	644.88861	473.90515	56.94921	888.15735	370.99332	65.43875							
2513	20.933	647.16638	468.99194	62.10301	887.52637	365.38678	74.14501							
2514	20.942	649.21167	463.35071	67.68744	887.47064	359.26965	84.42471							
2515	20.950	651.46039	457.17233	73.85834	887.27405	353.34305	93.70061							
2516	20.958	653.70587	450.17120	80.57197	887.53204	346.08640	107.26752							
2517	20.967	655.26910	442.10666	87.82127	887.42004	339.40381	118.86778							
2518	20.975	657.27039	433.64847	95.87271	887.80109	333.46576	130.60561							
2519	20.983	659.18018	424.73859	104.68083	888.52545	327.79169	142.89555							
2520	20.992	660.81091	414.28857	115.45933	889.39911	322.43091	155.73575							
2521	21.000	662.43042	404.06354	127.24536	890.64423	317.31909	169.18896							
2522	21.008	663.87860	393.54449	140.92892	892.03937	312.73157	182.69241							
2523	21.017	664.85828	382.92316	156.42957	893.65039	308.56052	196.96559							
2524	21.025	665.04492	371.79846	174.24551	895.41107	304.84509	211.20601							
2525	21.033	665.23090	361.75482	193.85455	897.31842	301.59009	226.13803							
2526	21.042	664.84772	352.70712	214.89207	899.61102	298.87842	240.77272							
2527	21.050	663.98792	344.69662	235.86942	901.93420	296.64487	255.72749							
2528	21.058	662.45093	337.93350	261.41861	904.53467	295.12045	271.11880							
2529	21.067	660.39783	332.87805	285.94775	907.18890	294.16162	286.05472							
2530	21.075	657.87817	329.33447	311.05078	910.03839	293.84750	300.97269							
2531	21.083	654.85187	327.37970	336.34747	913.13159	293.99655	314.22787							
2532	21.092	651.25696	327.20782	361.46597	915.84113	295.24249	330.73581							
2533	21.100	648.20721	329.37024	386.57376	918.86896	296.82849	344.90659							
2534	21.108	644.26166	332.80551	410.58325	921.83423	298.83011	358.85080							
2535	21.117	639.63580	337.59570	434.10452	924.98669	301.35693	372.20236							
2536	21.125	635.02509	343.84283	456.09457	928.02386	304.22363	385.43680							
2537	21.133	630.25793	351.54431	478.21429	931.10883	307.49722	397.77127							
2538	21.142	625.38531	360.14154	497.48956	934.10175	311.20187	410.40201							
2539	21.150	620.79883	369.57211	515.28650	937.11517	315.06351	421.38293							
